<svg width="108" height="166" xmlns="http://www.w3.org/2000/svg"><g fill="#356AE6" fill-rule="nonzero"><path d="M43.6 89.7c2.6 0 5.2-1 8-3.1 3.3-2.3 6.2-4.2 6.2-4.2l1-.7-1-.7c-.4-.3-43.9-30.5-48.4-33.4-2.1-1.5-4.5-1.8-6.4-.9-1.8.9-2.8 2.8-2.8 5.1v10.3l.4.2c.3.2 30.2 21 36 24.9 2.4 1.7 4.7 2.5 7 2.5z"/><path d="M101.9 71.6C99.3 69.7 6 4.6 2 1.8L.7.9v16c0 5.1 2.7 7 6 9.4 0 0 71.6 49.9 80.5 56-8.9 6.2-76.3 52.9-80.6 55.6-5.1 3.4-5.6 5.6-5.6 10.2v17.2s98.7-70.6 100.8-72.2c4.5-3.4 5.5-7.4 5.6-10.3V81c.1-3.6-1.8-6.8-5.5-9.4z"/></g></svg>
